# Blender v2.92.0 OBJ File: 'LowPoly Server Room.blend'
# www.blender.org
mtllib box.mtl
o box
v -0.455087 -0.947403 0.345448
v -0.455087 0.087015 0.345448
v -0.492539 -0.988221 0.000000
v -0.492539 0.127833 0.000000
v 0.188258 -0.947403 0.345448
v 0.188258 0.087015 0.345448
v 0.225709 -0.988221 0.000000
v 0.225709 0.127833 0.000000
v -0.492539 -0.988221 0.345448
v -0.492539 0.127833 0.345448
v 0.225709 0.127833 0.345448
v 0.225709 -0.988221 0.345448
v -0.455087 -0.947403 0.035959
v -0.455087 0.087015 0.035959
v 0.188258 0.087015 0.035959
v 0.188258 -0.947403 0.035959
v -0.437565 -0.947403 0.378831
v -0.437565 0.087015 0.378831
v 0.188258 -0.947403 0.378831
v 0.188258 0.087015 0.378831
v -0.492539 -0.988221 0.378831
v -0.492539 0.127833 0.378831
v 0.225709 0.127833 0.378831
v 0.225709 -0.988221 0.378831
v -0.492539 -0.988221 0.345448
v -0.492539 0.127833 0.345448
v 0.225709 0.127833 0.345448
v 0.225709 -0.988221 0.345448
v -0.437565 -0.947403 0.345448
v -0.437565 0.087015 0.345448
v 0.188258 0.087015 0.345448
v 0.188258 -0.947403 0.345448
v 0.188258 -0.947403 0.356661
v 0.188258 0.087015 0.356661
v -0.455087 -0.947403 0.356661
v -0.455087 0.087015 0.356661
v -0.455087 -0.947403 0.368071
v -0.455087 0.087015 0.368071
v 0.188258 -0.947403 0.368071
v 0.188258 0.087015 0.368071
v -0.477559 -0.489692 0.375082
v -0.477559 -0.370697 0.375082
v -0.450626 -0.489692 0.375082
v -0.450626 -0.370697 0.375082
v -0.477559 -0.509747 0.355026
v -0.477559 -0.350642 0.355026
v -0.450626 -0.350642 0.355026
v -0.450626 -0.509747 0.355026
v -0.477559 -0.474122 0.423263
v -0.477559 -0.489692 0.407693
v -0.477559 -0.370697 0.407693
v -0.477559 -0.386267 0.423263
v -0.450626 -0.489692 0.407693
v -0.450626 -0.474122 0.423263
v -0.450626 -0.386267 0.423263
v -0.450626 -0.370697 0.407693
v -0.477559 -0.494177 0.443319
v -0.477559 -0.509747 0.427749
v -0.477559 -0.350642 0.427749
v -0.477559 -0.366211 0.443319
v -0.450626 -0.509747 0.427749
v -0.450626 -0.494177 0.443319
v -0.450626 -0.366211 0.443319
v -0.450626 -0.350642 0.427749
vt 0.937500 0.937500
vt 0.937500 0.937500
vt 0.937500 0.937500
vt 0.937500 0.937500
vt 0.937500 0.937500
vt 0.937500 0.937500
vt 0.937500 0.937500
vt 0.937500 0.937500
vt 0.937500 0.937500
vt 0.937500 0.937500
vt 0.937500 0.937500
vt 0.937500 0.937500
vt 0.937500 0.937500
vt 0.937500 0.937500
vt 0.937500 0.937500
vt 0.937500 0.937500
vt 0.937500 0.687500
vt 0.937500 0.687500
vt 0.937500 0.687500
vt 0.937500 0.687500
vt 0.937500 0.687500
vt 0.937500 0.687500
vt 0.937500 0.687500
vt 0.937500 0.687500
vt 0.937500 0.687500
vt 0.937500 0.687500
vt 0.937500 0.687500
vt 0.937500 0.687500
vt 0.937500 0.687500
vt 0.937500 0.687500
vt 0.937500 0.687500
vt 0.937500 0.687500
vt 0.687500 0.937500
vt 0.687500 0.937500
vt 0.687500 0.937500
vt 0.687500 0.937500
vt 0.687500 0.937500
vt 0.687500 0.937500
vt 0.687500 0.937500
vt 0.687500 0.937500
vt 0.437500 0.687500
vt 0.437500 0.687500
vt 0.437500 0.687500
vt 0.437500 0.687500
vt 0.437500 0.687500
vt 0.437500 0.687500
vt 0.437500 0.687500
vt 0.437500 0.687500
vt 0.437500 0.687500
vt 0.437500 0.687500
vt 0.437500 0.687500
vt 0.437500 0.687500
vt 0.437500 0.687500
vt 0.437500 0.687500
vt 0.437500 0.687500
vt 0.437500 0.687500
vt 0.437500 0.687500
vt 0.437500 0.687500
vt 0.437500 0.687500
vt 0.437500 0.687500
vt 0.437500 0.687500
vt 0.437500 0.687500
vt 0.437500 0.687500
vt 0.437500 0.687500
vn -0.0000 0.0000 1.0000
vn 0.0000 0.0000 -1.0000
vn 0.0000 1.0000 0.0000
vn 1.0000 0.0000 0.0000
vn 0.0000 -1.0000 0.0000
vn -1.0000 0.0000 0.0000
vn 0.0000 -0.7071 0.7071
vn 0.0000 0.7071 0.7071
vn 0.0000 -0.7071 -0.7071
vn 0.0000 0.7071 -0.7071
usemtl Dark
s off
f 17/1/1 18/2/1 22/3/1 21/4/1
f 20/5/1 19/6/1 24/7/1 23/8/1
f 19/6/1 17/1/1 21/4/1 24/7/1
f 18/2/1 20/5/1 23/8/1 22/3/1
f 29/9/2 25/10/2 26/11/2 30/12/2
f 31/13/2 27/14/2 28/15/2 32/16/2
f 32/16/2 28/15/2 25/10/2 29/9/2
f 30/12/2 26/11/2 27/14/2 31/13/2
f 19/6/3 32/16/3 29/9/3 17/1/3
f 17/1/4 29/9/4 30/12/4 18/2/4
f 21/4/5 25/10/5 28/15/5 24/7/5
f 22/3/6 26/11/6 25/10/6 21/4/6
f 18/2/5 30/12/5 31/13/5 20/5/5
f 20/5/6 31/13/6 32/16/6 19/6/6
f 23/8/3 27/14/3 26/11/3 22/3/3
f 24/7/4 28/15/4 27/14/4 23/8/4
usemtl White
f 9/17/6 10/18/6 4/19/6 3/20/6
f 3/20/2 4/19/2 8/21/2 7/22/2
f 7/22/4 8/21/4 11/23/4 12/24/4
f 6/25/5 2/26/5 14/27/5 15/28/5
f 3/20/5 7/22/5 12/24/5 9/17/5
f 8/21/3 4/19/3 10/18/3 11/23/3
f 1/29/1 2/26/1 10/18/1 9/17/1
f 6/25/1 5/30/1 12/24/1 11/23/1
f 5/30/1 1/29/1 9/17/1 12/24/1
f 2/26/1 6/25/1 11/23/1 10/18/1
f 16/31/1 15/28/1 14/27/1 13/32/1
f 5/30/6 6/25/6 15/28/6 16/31/6
f 1/29/3 5/30/3 16/31/3 13/32/3
f 2/26/4 1/29/4 13/32/4 14/27/4
usemtl transparency
f 33/33/1 34/34/1 36/35/1 35/36/1
f 37/37/1 39/38/1 40/39/1 38/40/1
usemtl dark_light
f 43/41/4 53/42/4 61/43/4 48/44/4
f 45/45/2 46/46/2 47/47/2 48/44/2
f 43/41/1 44/48/1 42/49/1 41/50/1
f 47/47/3 46/46/3 59/51/3 64/52/3
f 62/53/1 63/54/1 60/55/1 57/56/1
f 55/57/2 54/58/2 49/59/2 52/60/2
f 42/49/6 51/61/6 59/51/6 46/46/6
f 44/48/5 56/62/5 51/61/5 42/49/5
f 41/50/6 42/49/6 46/46/6 45/45/6
f 44/48/4 43/41/4 48/44/4 47/47/4
f 54/58/4 55/57/4 63/54/4 62/53/4
f 45/45/5 48/44/5 61/43/5 58/63/5
f 56/62/4 44/48/4 47/47/4 64/52/4
f 52/60/6 49/59/6 57/56/6 60/55/6
f 50/64/6 41/50/6 45/45/6 58/63/6
f 58/63/7 61/43/7 62/53/7 57/56/7
f 64/52/8 59/51/8 60/55/8 63/54/8
f 57/56/6 49/59/6 50/64/6 58/63/6
f 59/51/6 51/61/6 52/60/6 60/55/6
f 54/58/4 62/53/4 61/43/4 53/42/4
f 63/54/4 55/57/4 56/62/4 64/52/4
f 55/57/9 52/60/9 51/61/9 56/62/9
f 53/42/10 50/64/10 49/59/10 54/58/10
f 53/42/3 43/41/3 41/50/3 50/64/3
