# Blender v2.92.0 OBJ File: 'LowPoly Server Room.blend'
# www.blender.org
mtllib electric cable.mtl
o electric_cable
v -0.183571 -0.143095 0.005557
v -0.183571 0.354356 0.005557
v -0.172055 -0.132047 -0.081109
v -0.172055 0.343308 -0.081109
v 0.190055 -0.143095 0.005557
v 0.190055 0.354356 0.005557
v 0.178539 -0.132047 -0.081109
v 0.178539 0.343308 -0.081109
v -0.183571 0.354356 -0.081109
v -0.183571 -0.143095 -0.081109
v 0.190055 -0.143095 -0.081109
v 0.190055 0.354356 -0.081109
v -0.172055 0.343308 -0.015526
v -0.172055 -0.132047 -0.015526
v 0.178539 -0.132047 -0.015526
v 0.178539 0.343308 -0.015526
v -0.183571 0.354356 -0.086074
v -0.183571 -0.143095 -0.086074
v 0.190056 -0.143095 -0.086074
v 0.190056 0.354356 -0.086074
v -0.183571 0.354356 -0.081109
v -0.183571 -0.143095 -0.081109
v 0.190056 -0.143095 -0.081109
v 0.190056 0.354356 -0.081109
v 0.190054 -0.023877 -0.077918
v 0.190054 -0.086222 -0.077918
v 0.186749 -0.023877 -0.080319
v 0.186749 -0.086222 -0.080319
v 0.188012 -0.023877 -0.084205
v 0.188012 -0.086222 -0.084205
v 0.192097 -0.023877 -0.084205
v 0.192097 -0.086222 -0.084205
v 0.193359 -0.023877 -0.080319
v 0.193359 -0.086222 -0.080319
v 0.190054 0.283919 -0.077918
v 0.190054 0.221574 -0.077918
v 0.186749 0.283919 -0.080319
v 0.186749 0.221574 -0.080319
v 0.188012 0.283919 -0.084205
v 0.188012 0.221574 -0.084205
v 0.192097 0.283919 -0.084205
v 0.192097 0.221574 -0.084205
v 0.193359 0.283919 -0.080319
v 0.193359 0.221574 -0.080319
v -0.142014 0.069636 -0.084291
v -0.142014 0.141625 -0.084291
v -0.125467 0.069636 -0.084291
v -0.125467 0.141625 -0.084291
v -0.142014 0.056910 -0.084291
v -0.142014 0.154351 -0.084291
v -0.125467 0.056910 -0.084291
v -0.125467 0.154351 -0.084291
v -0.142014 0.069510 -0.103939
v -0.142014 0.082567 -0.114969
v -0.142014 0.128694 -0.114969
v -0.142014 0.141752 -0.103939
v -0.125467 0.082567 -0.114969
v -0.125467 0.069510 -0.103939
v -0.125467 0.141752 -0.103939
v -0.125467 0.128694 -0.114969
v -0.142014 0.056910 -0.115638
v -0.142014 0.070868 -0.129596
v -0.142014 0.140394 -0.129596
v -0.142014 0.154351 -0.115638
v -0.125467 0.154351 -0.115638
v -0.125467 0.140394 -0.129596
v -0.125467 0.070868 -0.129596
v -0.125467 0.056910 -0.115638
v -0.143095 -1.682903 0.005557
v -0.143095 -1.531393 0.005557
v -0.143095 -1.682903 -0.053813
v -0.143095 -1.531393 -0.053813
v 0.143095 -1.682903 0.005557
v 0.143095 -1.531393 0.005557
v 0.143095 -1.682903 -0.053813
v 0.143095 -1.531393 -0.053813
v 0.073808 -1.551361 -0.043276
v 0.073808 -0.141383 -0.043276
v 0.085545 -1.551361 -0.039462
v 0.085545 -0.141383 -0.039462
v 0.092799 -1.551361 -0.029478
v 0.092799 -0.141383 -0.029478
v 0.092799 -1.551361 -0.017137
v 0.092799 -0.141383 -0.017137
v 0.085545 -1.551361 -0.007152
v 0.085545 -0.141383 -0.007152
v 0.073808 -1.551361 -0.003339
v 0.073808 -0.141383 -0.003339
v 0.062071 -1.551361 -0.007152
v 0.062071 -0.141383 -0.007152
v 0.054817 -1.551361 -0.017137
v 0.054817 -0.141383 -0.017137
v 0.054817 -1.551361 -0.029478
v 0.054817 -0.141383 -0.029478
v 0.062071 -1.551361 -0.039462
v 0.062071 -0.141383 -0.039462
v 0.073808 0.350164 -0.043276
v 0.073808 2.148376 -0.043276
v 0.085545 0.350164 -0.039462
v 0.085545 2.148376 -0.039462
v 0.092799 0.350164 -0.029478
v 0.092799 2.148376 -0.029478
v 0.092799 0.350164 -0.017137
v 0.092799 2.148376 -0.017137
v 0.085545 0.350164 -0.007152
v 0.085545 2.148376 -0.007152
v 0.073808 0.350164 -0.003339
v 0.073808 2.148376 -0.003339
v 0.062071 0.350164 -0.007152
v 0.062071 2.148376 -0.007152
v 0.054817 0.350164 -0.017137
v 0.054817 2.148376 -0.017137
v 0.054817 0.350164 -0.029478
v 0.054817 2.148376 -0.029478
v 0.062071 0.350164 -0.039462
v 0.062071 2.148376 -0.039462
v 0.085255 1.249270 -0.043276
v 0.096992 1.249270 -0.039462
v 0.104246 1.249270 -0.029478
v 0.104246 1.249270 -0.017137
v 0.096992 1.249270 -0.007152
v 0.085255 1.249270 -0.003339
v 0.073518 1.249270 -0.007152
v 0.066264 1.249270 -0.017137
v 0.066264 1.249270 -0.029478
v 0.073518 1.249270 -0.039462
v -0.059815 -1.551361 -0.043276
v -0.059815 -0.141383 -0.043276
v -0.048077 -1.551361 -0.039462
v -0.048077 -0.141383 -0.039462
v -0.040823 -1.551361 -0.029478
v -0.040823 -0.141383 -0.029478
v -0.040823 -1.551361 -0.017137
v -0.040823 -0.141383 -0.017137
v -0.048077 -1.551361 -0.007152
v -0.048077 -0.141383 -0.007152
v -0.059815 -1.551361 -0.003339
v -0.059815 -0.141383 -0.003339
v -0.071552 -1.551361 -0.007152
v -0.071552 -0.141383 -0.007152
v -0.078806 -1.551361 -0.017137
v -0.078806 -0.141383 -0.017137
v -0.078806 -1.551361 -0.029478
v -0.078806 -0.141383 -0.029478
v -0.071552 -1.551361 -0.039462
v -0.071552 -0.141383 -0.039462
v -0.068327 0.350164 -0.043276
v -0.068327 2.148376 -0.043276
v -0.056589 0.350164 -0.039462
v -0.056589 2.148376 -0.039462
v -0.049335 0.350164 -0.029478
v -0.049335 2.148376 -0.029478
v -0.049335 0.350164 -0.017137
v -0.049335 2.148376 -0.017137
v -0.056589 0.350164 -0.007152
v -0.056589 2.148376 -0.007152
v -0.068327 0.350164 -0.003339
v -0.068327 2.148376 -0.003339
v -0.080064 0.350164 -0.007152
v -0.080064 2.148376 -0.007152
v -0.087318 0.350164 -0.017137
v -0.087318 2.148376 -0.017137
v -0.087318 0.350164 -0.029478
v -0.087318 2.148376 -0.029478
v -0.080064 0.350164 -0.039462
v -0.080064 2.148376 -0.039462
v -0.073144 1.562520 -0.043276
v -0.061407 1.562520 -0.039462
v -0.054153 1.562520 -0.029478
v -0.054153 1.562520 -0.017137
v -0.061407 1.562520 -0.007152
v -0.073144 1.562520 -0.003339
v -0.084881 1.562520 -0.007152
v -0.092135 1.562520 -0.017137
v -0.092135 1.562520 -0.029478
v -0.084881 1.562520 -0.039462
v -0.063503 0.799717 -0.039462
v -0.056249 0.799717 -0.029478
v -0.056249 0.799717 -0.017137
v -0.063503 0.799717 -0.007152
v -0.075240 0.799717 -0.003339
v -0.086978 0.799717 -0.007152
v -0.094232 0.799717 -0.017137
v -0.094232 0.799717 -0.029478
v -0.086978 0.799717 -0.039462
v -0.075240 0.799717 -0.043276
v -0.143095 1.986278 0.005557
v -0.143095 2.148376 0.005557
v -0.143095 1.986278 -0.053813
v -0.143095 2.148376 -0.053813
v 0.143095 1.986278 0.005557
v 0.143095 2.148376 0.005557
v 0.143095 1.986278 -0.053813
v 0.143095 2.148376 -0.053813
vt 0.937500 0.937500
vt 0.937500 0.937500
vt 0.937500 0.937500
vt 0.937500 0.937500
vt 0.937500 0.937500
vt 0.937500 0.937500
vt 0.937500 0.937500
vt 0.937500 0.937500
vt 0.937500 0.937500
vt 0.937500 0.937500
vt 0.937500 0.937500
vt 0.937500 0.937500
vt 0.937500 0.937500
vt 0.937500 0.937500
vt 0.937500 0.937500
vt 0.937500 0.937500
vt 0.937500 0.937500
vt 0.937500 0.937500
vt 0.937500 0.937500
vt 0.937500 0.937500
vt 0.937500 0.937500
vt 0.937500 0.937500
vt 0.937500 0.937500
vt 0.937500 0.937500
vt 0.937500 0.937500
vt 0.937500 0.937500
vt 0.937500 0.937500
vt 0.937500 0.937500
vt 0.937500 0.937500
vt 0.937500 0.937500
vt 0.937500 0.937500
vt 0.937500 0.937500
vt 0.937500 0.937500
vt 0.937500 0.937500
vt 0.937500 0.937500
vt 0.937500 0.937500
vt 0.937500 0.937500
vt 0.937500 0.937500
vt 0.937500 0.937500
vt 0.937500 0.937500
vt 0.937500 0.937500
vt 0.937500 0.937500
vt 0.937500 0.937500
vt 0.937500 0.937500
vt 0.937500 0.937500
vt 0.937500 0.937500
vt 0.937500 0.937500
vt 0.937500 0.937500
vt 0.937500 0.937500
vt 0.937500 0.937500
vt 0.937500 0.937500
vt 0.937500 0.937500
vt 0.937500 0.937500
vt 0.937500 0.937500
vt 0.937500 0.937500
vt 0.937500 0.937500
vt 0.937500 0.937500
vt 0.937500 0.937500
vt 0.937500 0.937500
vt 0.937500 0.937500
vt 0.437500 0.187500
vt 0.437500 0.187500
vt 0.437500 0.187500
vt 0.437500 0.187500
vt 0.437500 0.187500
vt 0.437500 0.187500
vt 0.437500 0.187500
vt 0.437500 0.187500
vt 0.437500 0.187500
vt 0.437500 0.187500
vt 0.437500 0.187500
vt 0.437500 0.187500
vt 0.437500 0.187500
vt 0.437500 0.187500
vt 0.437500 0.187500
vt 0.437500 0.187500
vt 0.437500 0.187500
vt 0.437500 0.187500
vt 0.437500 0.187500
vt 0.437500 0.187500
vt 0.437500 0.187500
vt 0.437500 0.187500
vt 0.437500 0.187500
vt 0.437500 0.187500
vt 0.437500 0.187500
vt 0.437500 0.187500
vt 0.437500 0.187500
vt 0.437500 0.187500
vt 0.937500 0.562500
vt 0.937500 0.562500
vt 0.937500 0.562500
vt 0.937500 0.562500
vt 0.937500 0.562500
vt 0.937500 0.562500
vt 0.937500 0.562500
vt 0.937500 0.562500
vt 0.937500 0.562500
vt 0.937500 0.562500
vt 0.937500 0.562500
vt 0.937500 0.562500
vt 0.937500 0.562500
vt 0.937500 0.562500
vt 0.937500 0.562500
vt 0.937500 0.562500
vt 0.937500 0.562500
vt 0.937500 0.562500
vt 0.937500 0.562500
vt 0.937500 0.562500
vt 0.937500 0.562500
vt 0.937500 0.562500
vt 0.937500 0.562500
vt 0.937500 0.562500
vt 0.937500 0.562500
vt 0.937500 0.562500
vt 0.937500 0.562500
vt 0.937500 0.562500
vt 0.937500 0.562500
vt 0.937500 0.562500
vt 0.937500 0.562500
vt 0.937500 0.562500
vt 0.937500 0.562500
vt 0.937500 0.562500
vt 0.937500 0.562500
vt 0.937500 0.562500
vt 0.937500 0.562500
vt 0.937500 0.562500
vt 0.937500 0.562500
vt 0.937500 0.562500
vt 0.937500 0.562500
vt 0.937500 0.562500
vt 0.937500 0.562500
vt 0.937500 0.562500
vt 0.937500 0.562500
vt 0.937500 0.562500
vt 0.937500 0.562500
vt 0.937500 0.562500
vt 0.937500 0.562500
vt 0.937500 0.562500
vt 0.937500 0.562500
vt 0.937500 0.562500
vt 0.937500 0.562500
vt 0.937500 0.562500
vt 0.937500 0.562500
vt 0.937500 0.562500
vt 0.937500 0.562500
vt 0.937500 0.562500
vt 0.937500 0.562500
vt 0.937500 0.562500
vt 0.937500 0.562500
vt 0.937500 0.562500
vt 0.937500 0.562500
vt 0.937500 0.562500
vt 0.937500 0.562500
vt 0.937500 0.562500
vt 0.937500 0.562500
vt 0.937500 0.562500
vt 0.937500 0.562500
vt 0.937500 0.562500
vt 0.937500 0.562500
vt 0.937500 0.562500
vt 0.937500 0.562500
vt 0.937500 0.562500
vt 0.937500 0.562500
vt 0.937500 0.562500
vt 0.937500 0.562500
vt 0.937500 0.562500
vt 0.937500 0.562500
vt 0.937500 0.562500
vt 0.937500 0.562500
vt 0.937500 0.562500
vt 0.937500 0.562500
vt 0.937500 0.562500
vt 0.937500 0.562500
vt 0.937500 0.562500
vt 0.937500 0.562500
vt 0.937500 0.562500
vt 0.937500 0.562500
vt 0.937500 0.562500
vt 0.937500 0.562500
vt 0.937500 0.562500
vt 0.937500 0.562500
vt 0.937500 0.562500
vt 0.937500 0.562500
vt 0.937500 0.562500
vt 0.937500 0.562500
vt 0.937500 0.562500
vt 0.937500 0.562500
vt 0.937500 0.562500
vt 0.937500 0.562500
vt 0.937500 0.562500
vt 0.937500 0.562500
vt 0.937500 0.562500
vt 0.937500 0.562500
vt 0.937500 0.562500
vt 0.937500 0.562500
vt 0.937500 0.562500
vt 0.937500 0.562500
vt 0.937500 0.562500
vn 0.0000 0.0000 1.0000
vn -0.9511 0.0000 0.3090
vn -0.5878 0.0000 -0.8090
vn 0.5878 0.0000 -0.8090
vn 0.0000 -1.0000 0.0000
vn 0.9511 0.0000 0.3090
vn 0.0000 1.0000 -0.0000
vn 0.0000 0.9239 -0.3827
vn -1.0000 0.0000 0.0000
vn 0.0000 -0.3827 -0.9239
vn 0.0000 0.3827 -0.9239
vn 0.0000 0.3436 0.9391
vn 0.0000 -0.3436 0.9391
vn 1.0000 0.0000 0.0000
vn 0.0000 -1.0000 -0.0064
vn 0.0000 -0.9084 0.4182
vn 0.0000 -0.9239 -0.3827
vn 0.0000 0.9084 0.4182
vn 0.0000 1.0000 -0.0064
vn 0.0000 0.0000 -1.0000
vn 0.9511 0.0000 -0.3090
vn 0.5878 0.0000 0.8090
vn -0.5878 0.0000 0.8090
vn -0.9511 0.0000 -0.3090
vn 0.0025 0.0000 -1.0000
vn -0.0025 -0.0000 -1.0000
vn 0.5861 0.0075 -0.8102
vn 0.5894 0.0000 -0.8078
vn 0.9507 0.0121 -0.3097
vn 0.9513 0.0000 -0.3083
vn 0.9507 0.0121 0.3097
vn 0.9513 0.0000 0.3083
vn 0.5861 0.0075 0.8102
vn 0.5894 0.0000 0.8078
vn -0.0025 -0.0000 1.0000
vn 0.0025 0.0000 1.0000
vn -0.5894 -0.0075 0.8078
vn -0.5861 -0.0000 0.8102
vn -0.9512 -0.0121 0.3083
vn -0.9508 -0.0000 0.3098
vn -0.9512 -0.0121 -0.3083
vn -0.9508 -0.0000 -0.3098
vn -0.5894 -0.0075 -0.8078
vn -0.5861 -0.0000 -0.8102
vn -0.5894 0.0075 -0.8078
vn -0.9512 0.0121 -0.3083
vn -0.9512 0.0121 0.3083
vn -0.5894 0.0075 0.8078
vn 0.5861 -0.0075 0.8102
vn 0.9507 -0.0121 0.3097
vn 0.9507 -0.0121 -0.3097
vn 0.5861 -0.0075 -0.8102
vn -0.0005 0.0000 -1.0000
vn 0.0016 -0.0000 -1.0000
vn 0.5888 -0.0048 -0.8082
vn 0.5874 -0.0032 -0.8093
vn 0.9512 -0.0078 -0.3085
vn 0.9510 -0.0052 -0.3092
vn 0.9512 -0.0078 0.3085
vn 0.9510 -0.0052 0.3092
vn 0.5888 -0.0048 0.8082
vn 0.5874 -0.0032 0.8093
vn 0.0016 -0.0000 1.0000
vn -0.0005 0.0000 1.0000
vn -0.5867 0.0048 0.8098
vn -0.5881 0.0032 0.8088
vn -0.9509 0.0078 0.3095
vn -0.9511 0.0052 0.3089
vn -0.9509 0.0078 -0.3095
vn -0.9511 0.0052 -0.3089
vn -0.5867 0.0048 -0.8098
vn -0.5881 0.0032 -0.8088
vn -0.5889 -0.0037 -0.8082
vn -0.0018 -0.0000 -1.0000
vn -0.9512 -0.0060 -0.3085
vn -0.9512 -0.0060 0.3085
vn -0.5889 -0.0037 0.8082
vn -0.0018 -0.0000 1.0000
vn 0.5866 0.0037 0.8099
vn 0.9509 0.0060 0.3095
vn 0.9509 0.0060 -0.3095
vn 0.5866 0.0037 -0.8099
vn 0.0030 0.0000 -1.0000
vn 0.5897 0.0091 -0.8075
vn 0.9512 0.0146 -0.3081
vn 0.9512 0.0146 0.3081
vn 0.5897 0.0091 0.8075
vn 0.0030 0.0000 1.0000
vn -0.5858 -0.0090 0.8104
vn -0.9507 -0.0146 0.3099
vn -0.9507 -0.0146 -0.3099
vn -0.5858 -0.0090 -0.8104
usemtl Dark
s 1
f 25/1/1 27/2/2 28/3/2 26/4/1
f 27/2/2 29/5/3 30/6/3 28/3/2
f 29/5/3 31/7/4 32/8/4 30/6/3
f 28/3/5 30/6/5 32/8/5 34/9/5 26/4/5
f 31/7/4 33/10/6 34/9/6 32/8/4
f 33/10/6 25/1/1 26/4/1 34/9/6
f 25/1/7 33/10/7 31/7/7 29/5/7 27/2/7
f 35/11/1 37/12/2 38/13/2 36/14/1
f 37/12/2 39/15/3 40/16/3 38/13/2
f 39/15/3 41/17/4 42/18/4 40/16/3
f 38/13/5 40/16/5 42/18/5 44/19/5 36/14/5
f 41/17/4 43/20/6 44/19/6 42/18/4
f 43/20/6 35/11/1 36/14/1 44/19/6
f 35/11/7 43/20/7 41/17/7 39/15/7 37/12/7
f 65/21/8 64/22/8 50/23/7 52/24/7
f 54/25/9 55/26/9 63/27/9 62/28/9
f 62/28/10 63/27/11 66/29/11 67/30/10
f 54/25/12 57/31/12 60/32/13 55/26/13
f 60/32/14 57/31/14 67/30/14 66/29/14
f 46/33/15 56/34/16 59/35/16 48/36/15
f 58/37/14 47/38/14 51/39/14 68/40/14
f 48/36/14 59/35/14 65/21/14 52/24/14
f 61/41/17 68/40/17 51/39/5 49/42/5
f 56/34/9 46/33/9 50/23/9 64/22/9
f 53/43/18 45/44/19 47/38/19 58/37/18
f 68/40/17 61/41/17 62/28/10 67/30/10
f 64/22/8 65/21/8 66/29/11 63/27/11
f 54/25/9 62/28/9 61/41/9 53/43/9
f 63/27/9 55/26/9 56/34/9 64/22/9
f 65/21/14 59/35/14 60/32/14 66/29/14
f 58/37/14 68/40/14 67/30/14 57/31/14
f 53/43/18 58/37/18 57/31/12 54/25/12
f 55/26/13 60/32/13 59/35/16 56/34/16
f 45/44/9 53/43/9 61/41/9 49/42/9
f 69/45/9 70/46/9 72/47/9 71/48/9
f 71/48/20 72/47/20 76/49/20 75/50/20
f 75/50/14 76/49/14 74/51/14 73/52/14
f 73/52/1 74/51/1 70/46/1 69/45/1
f 71/48/5 75/50/5 73/52/5 69/45/5
f 76/49/7 72/47/7 70/46/7 74/51/7
f 187/53/9 188/54/9 190/55/9 189/56/9
f 189/56/20 190/55/20 194/57/20 193/58/20
f 193/58/14 194/57/14 192/59/14 191/60/14
f 191/60/1 192/59/1 188/54/1 187/53/1
f 189/56/5 193/58/5 191/60/5 187/53/5
usemtl Grey
f 1/61/9 2/62/9 9/63/9 10/64/9
f 8/65/9 7/66/9 15/67/9 16/68/9
f 11/69/14 12/70/14 6/71/14 5/72/14
f 5/72/1 6/71/1 2/62/1 1/61/1
f 10/64/5 11/69/5 5/72/5 1/61/5
f 12/70/7 9/63/7 2/62/7 6/71/7
f 4/73/20 3/74/20 10/64/20 9/63/20
f 3/74/20 7/66/20 11/69/20 10/64/20
f 8/65/20 4/73/20 9/63/20 12/70/20
f 7/66/20 8/65/20 12/70/20 11/69/20
f 14/75/20 13/76/20 16/68/20 15/67/20
f 7/66/7 3/74/7 14/75/7 15/67/7
f 4/73/5 8/65/5 16/68/5 13/76/5
f 3/74/14 4/73/14 13/76/14 14/75/14
f 18/77/20 17/78/20 20/79/20 19/80/20
f 22/81/1 23/82/1 24/83/1 21/84/1
f 17/78/7 21/84/7 24/83/7 20/79/7
f 18/77/9 22/81/9 21/84/9 17/78/9
f 20/79/14 24/83/14 23/82/14 19/80/14
f 19/80/5 23/82/5 22/81/5 18/77/5
f 194/85/7 190/86/7 188/87/7 192/88/7
usemtl Material.006
f 77/89/20 78/90/20 80/91/4 79/92/4
f 79/92/4 80/91/4 82/93/21 81/94/21
f 81/94/21 82/93/21 84/95/6 83/96/6
f 83/96/6 84/95/6 86/97/22 85/98/22
f 85/98/22 86/97/22 88/99/1 87/100/1
f 87/100/1 88/99/1 90/101/23 89/102/23
f 89/102/23 90/101/23 92/103/2 91/104/2
f 91/104/2 92/103/2 94/105/24 93/106/24
f 93/106/24 94/105/24 96/107/3 95/108/3
f 95/108/3 96/107/3 78/90/20 77/89/20
f 77/89/5 79/92/5 81/94/5 83/96/5 85/98/5 87/100/5 89/102/5 91/104/5 93/106/5 95/108/5
f 117/109/25 98/110/26 100/111/27 118/112/28
f 118/112/28 100/111/27 102/113/29 119/114/30
f 119/114/30 102/113/29 104/115/31 120/116/32
f 120/116/32 104/115/31 106/117/33 121/118/34
f 121/118/34 106/117/33 108/119/35 122/120/36
f 122/120/36 108/119/35 110/121/37 123/122/38
f 123/122/38 110/121/37 112/123/39 124/124/40
f 124/124/40 112/123/39 114/125/41 125/126/42
f 125/126/42 114/125/41 116/127/43 126/128/44
f 126/128/44 116/127/43 98/110/26 117/109/25
f 97/129/5 99/130/5 101/131/5 103/132/5 105/133/5 107/134/5 109/135/5 111/136/5 113/137/5 115/138/5
f 115/138/45 126/128/44 117/109/25 97/129/26
f 113/137/46 125/126/42 126/128/44 115/138/45
f 111/136/47 124/124/40 125/126/42 113/137/46
f 109/135/48 123/122/38 124/124/40 111/136/47
f 107/134/35 122/120/36 123/122/38 109/135/48
f 105/133/49 121/118/34 122/120/36 107/134/35
f 103/132/50 120/116/32 121/118/34 105/133/49
f 101/131/51 119/114/30 120/116/32 103/132/50
f 99/130/52 118/112/28 119/114/30 101/131/51
f 97/129/26 117/109/25 118/112/28 99/130/52
f 127/139/20 128/140/20 130/141/4 129/142/4
f 129/142/4 130/141/4 132/143/21 131/144/21
f 131/144/21 132/143/21 134/145/6 133/146/6
f 133/146/6 134/145/6 136/147/22 135/148/22
f 135/148/22 136/147/22 138/149/1 137/150/1
f 137/150/1 138/149/1 140/151/23 139/152/23
f 139/152/23 140/151/23 142/153/2 141/154/2
f 141/154/2 142/153/2 144/155/24 143/156/24
f 143/156/24 144/155/24 146/157/3 145/158/3
f 145/158/3 146/157/3 128/140/20 127/139/20
f 127/139/5 129/142/5 131/144/5 133/146/5 135/148/5 137/150/5 139/152/5 141/154/5 143/156/5 145/158/5
f 167/159/53 148/160/54 150/161/55 168/162/56
f 168/162/56 150/161/55 152/163/57 169/164/58
f 169/164/58 152/163/57 154/165/59 170/166/60
f 170/166/60 154/165/59 156/167/61 171/168/62
f 171/168/62 156/167/61 158/169/63 172/170/64
f 172/170/64 158/169/63 160/171/65 173/172/66
f 173/172/66 160/171/65 162/173/67 174/174/68
f 174/174/68 162/173/67 164/175/69 175/176/70
f 175/176/70 164/175/69 166/177/71 176/178/72
f 176/178/72 166/177/71 148/160/54 167/159/53
f 147/179/5 149/180/5 151/181/5 153/182/5 155/183/5 157/184/5 159/185/5 161/186/5 163/187/5 165/188/5
f 185/189/73 176/178/72 167/159/53 186/190/74
f 184/191/75 175/176/70 176/178/72 185/189/73
f 183/192/76 174/174/68 175/176/70 184/191/75
f 182/193/77 173/172/66 174/174/68 183/192/76
f 181/194/78 172/170/64 173/172/66 182/193/77
f 180/195/79 171/168/62 172/170/64 181/194/78
f 179/196/80 170/166/60 171/168/62 180/195/79
f 178/197/81 169/164/58 170/166/60 179/196/80
f 177/198/82 168/162/56 169/164/58 178/197/81
f 186/190/74 167/159/53 168/162/56 177/198/82
f 147/179/83 186/190/74 177/198/82 149/180/84
f 149/180/84 177/198/82 178/197/81 151/181/85
f 151/181/85 178/197/81 179/196/80 153/182/86
f 153/182/86 179/196/80 180/195/79 155/183/87
f 155/183/87 180/195/79 181/194/78 157/184/88
f 157/184/88 181/194/78 182/193/77 159/185/89
f 159/185/89 182/193/77 183/192/76 161/186/90
f 161/186/90 183/192/76 184/191/75 163/187/91
f 163/187/91 184/191/75 185/189/73 165/188/92
f 165/188/92 185/189/73 186/190/74 147/179/83
