# Blender v2.92.0 OBJ File: 'LowPoly Server Room.blend'
# www.blender.org
mtllib laptop.mtl
o laptop
v -0.061361 0.003360 0.124624
v -0.173140 0.003360 -0.117089
v -0.226195 -0.009692 -0.137423
v 0.061361 0.003360 0.124624
v 0.173140 0.003360 -0.117089
v 0.226195 -0.009692 -0.137423
v -0.211208 0.025018 -0.138942
v -0.226195 -0.009439 -0.140244
v -0.211208 0.240970 -0.199755
v 0.211208 0.025018 -0.138942
v 0.226195 -0.009439 -0.140244
v 0.211208 0.240970 -0.199755
v -0.226195 -0.009439 -0.129239
v 0.226195 -0.009439 -0.129239
v -0.211208 0.240068 -0.202959
v -0.211208 0.024116 -0.142145
v 0.211208 0.240068 -0.202959
v 0.211208 0.024116 -0.142145
v -0.173140 0.003360 0.027782
v -0.226195 -0.009692 0.042968
v 0.173140 0.003360 0.027782
v 0.226195 -0.009692 0.042968
v 0.226195 0.003360 -0.137423
v -0.226195 0.003360 -0.137423
v 0.061361 0.003360 0.055767
v -0.061361 0.003360 0.055767
v 0.173140 0.001375 -0.117089
v -0.173140 0.001375 -0.117089
v 0.173140 0.001375 0.027782
v -0.173140 0.001375 0.027782
v -0.226195 0.003360 0.042968
v 0.226195 0.003360 0.042968
v -0.061361 0.001796 0.055767
v -0.061361 0.001796 0.124624
v 0.061361 0.001796 0.124624
v 0.061361 0.001796 0.055767
v -0.226195 -0.009692 0.122431
v -0.211203 -0.009692 0.137423
v 0.211203 -0.009692 0.137423
v 0.226195 -0.009692 0.122431
v -0.211203 0.250136 -0.214823
v -0.226195 0.235525 -0.210625
v 0.226195 0.235525 -0.210625
v 0.211203 0.250136 -0.214823
v -0.226195 0.240750 -0.199694
v -0.211203 0.255396 -0.203818
v -0.215594 0.245191 -0.200944
v 0.211203 0.255396 -0.203818
v 0.226195 0.240750 -0.199694
v 0.215594 0.245191 -0.200944
v -0.211203 0.003360 0.137423
v -0.226195 0.003360 0.122431
v -0.211248 0.003360 0.136263
v 0.226195 0.003360 0.122431
v 0.211203 0.003360 0.137423
v 0.211248 0.003360 0.136263
vt 0.937500 0.937500
vt 0.937500 0.937500
vt 0.937500 0.937500
vt 0.937500 0.937500
vt 0.937500 0.937500
vt 0.937500 0.937500
vt 0.937500 0.937500
vt 0.937500 0.937500
vt 0.937500 0.937500
vt 0.937500 0.937500
vt 0.937500 0.937500
vt 0.937500 0.937500
vt 0.937500 0.937500
vt 0.937500 0.937500
vt 0.937500 0.937500
vt 0.937500 0.937500
vt 0.937500 0.937500
vt 0.937500 0.937500
vt 0.937500 0.937500
vt 0.937500 0.937500
vt 0.937500 0.937500
vt 0.937500 0.937500
vt 0.937500 0.937500
vt 0.937500 0.937500
vt 0.937500 0.937500
vt 0.937500 0.937500
vt 0.937500 0.937500
vt 0.937500 0.937500
vt 0.937500 0.937500
vt 0.937500 0.937500
vt 0.937500 0.937500
vt 0.937500 0.937500
vt 0.937500 0.937500
vt 0.937500 0.937500
vt 0.937500 0.937500
vt 0.937500 0.937500
vt 0.937500 0.937500
vt 0.937500 0.937500
vt 0.937500 0.937500
vt 0.937500 0.937500
vt 0.937500 0.937500
vt 0.937500 0.937500
vt 0.937500 0.937500
vt 0.937500 0.937500
vt 0.937500 0.937500
vt 0.937500 0.937500
vt 0.937500 0.937500
vt 0.937500 0.937500
vt 0.937500 0.937500
vt 0.937500 0.937500
vt 0.937500 0.937500
vt 0.937500 0.937500
vt 0.937500 0.937500
vt 0.937500 0.937500
vt 0.937500 0.937500
vt 0.937500 0.937500
vt 0.437500 0.187500
vt 0.437500 0.187500
vt 0.437500 0.187500
vt 0.437500 0.187500
vt 0.437500 0.187500
vt 0.437500 0.187500
vt 0.437500 0.187500
vt 0.437500 0.187500
vt 0.437500 0.437500
vt 0.437500 0.437500
vt 0.437500 0.437500
vt 0.437500 0.437500
vn -1.0000 0.0000 0.0000
vn 0.0000 0.0000 -1.0000
vn -0.0000 -0.2761 -0.9611
vn 0.0000 -1.0000 0.0000
vn 1.0000 0.0000 0.0000
vn 0.0000 0.9023 -0.4312
vn -0.0000 0.2711 0.9626
vn 0.0000 1.0000 0.0000
vn 0.0000 0.9626 -0.2711
vn 0.0000 -0.9626 0.2711
vn 0.0000 0.0000 1.0000
vn -0.7071 0.0000 0.7071
vn 0.7071 0.0000 0.7071
vn -0.7071 0.6380 -0.3049
vn 0.7071 0.6380 -0.3049
usemtl Dark
s off
f 31/1/1 24/2/1 3/3/1 20/4/1
f 24/2/2 23/5/2 6/6/2 3/3/2
f 43/7/3 11/8/3 8/9/3 42/10/3 41/11/3 44/12/3
f 22/13/4 40/14/4 39/15/4 38/16/4 37/17/4 20/4/4
f 25/18/1 36/19/1 35/20/1 4/21/1
f 32/22/5 54/23/5 40/14/5 22/13/5
f 46/24/6 48/25/6 44/12/6 41/11/6
f 49/26/5 14/27/5 11/8/5 43/7/5
f 9/28/7 47/29/7 45/30/7 13/31/7 7/32/7
f 14/27/4 13/31/4 8/9/4 11/8/4
f 12/33/1 17/34/1 18/35/1 10/36/1
f 13/31/1 45/30/1 42/10/1 8/9/1
f 12/33/7 50/37/7 48/25/7 46/24/7 47/29/7 9/28/7
f 10/36/7 14/27/7 49/26/7 50/37/7 12/33/7
f 26/38/8 31/1/8 52/39/8 53/40/8 1/41/8
f 7/32/7 13/31/7 14/27/7 10/36/7
f 7/32/5 16/42/5 15/43/5 9/28/5
f 10/36/9 18/35/9 16/42/9 7/32/9
f 9/28/10 15/43/10 17/34/10 12/33/10
f 6/6/4 22/13/4 20/4/4 3/3/4
f 21/44/2 29/45/2 30/46/2 19/47/2
f 23/5/5 32/22/5 22/13/5 6/6/5
f 55/48/11 51/49/11 38/16/11 39/15/11
f 5/50/8 23/5/8 24/2/8 2/51/8
f 21/44/8 32/22/8 23/5/8 5/50/8
f 2/51/8 24/2/8 31/1/8 19/47/8
f 19/47/8 31/1/8 32/22/8 21/44/8
f 5/50/1 27/52/1 29/45/1 21/44/1
f 19/47/5 30/46/5 28/53/5 2/51/5
f 2/51/11 28/53/11 27/52/11 5/50/11
f 1/41/8 53/40/8 51/49/8 55/48/8 56/54/8 4/21/8
f 4/21/8 56/54/8 54/23/8 32/22/8 25/18/8
f 25/18/8 32/22/8 31/1/8 26/38/8
f 1/41/5 34/55/5 33/56/5 26/38/5
f 26/38/11 33/56/11 36/19/11 25/18/11
f 4/21/2 35/20/2 34/55/2 1/41/2
f 45/30/7 47/29/7 46/24/7
f 48/25/7 50/37/7 49/26/7
f 51/49/8 53/40/8 52/39/8
f 54/23/8 56/54/8 55/48/8
f 51/49/12 52/39/12 37/17/12 38/16/12
f 39/15/13 40/14/13 54/23/13 55/48/13
f 41/11/14 42/10/14 45/30/14 46/24/14
f 43/7/15 44/12/15 48/25/15 49/26/15
f 52/39/1 31/1/1 20/4/1 37/17/1
usemtl Grey
f 28/57/8 30/58/8 29/59/8 27/60/8
f 33/61/8 34/62/8 35/63/8 36/64/8
usemtl glow
f 15/65/7 16/66/7 18/67/7 17/68/7
