# Blender v2.92.0 OBJ File: 'LowPoly Server Room.blend'
# www.blender.org
mtllib mousepad.mtl
o mousepad
v -0.107764 0.000000 0.140798
v -0.122316 0.000000 0.126246
v -0.113332 0.000000 0.139690
v -0.118053 0.000000 0.136536
v -0.121208 0.000000 0.131815
v -0.122316 0.003405 0.126246
v -0.107764 0.003405 0.140798
v -0.121208 0.003405 0.131815
v -0.118053 0.003405 0.136536
v -0.113332 0.003405 0.139690
v -0.122316 0.000000 -0.126246
v -0.107764 0.000000 -0.140798
v -0.121208 0.000000 -0.131815
v -0.118053 0.000000 -0.136536
v -0.113332 0.000000 -0.139690
v -0.107764 0.003405 -0.140798
v -0.122316 0.003405 -0.126246
v -0.113332 0.003405 -0.139690
v -0.118053 0.003405 -0.136536
v -0.121208 0.003405 -0.131815
v 0.122316 0.000000 0.126246
v 0.107764 0.000000 0.140798
v 0.121208 0.000000 0.131815
v 0.118053 0.000000 0.136536
v 0.113332 0.000000 0.139690
v 0.107764 0.003405 0.140798
v 0.122316 0.003405 0.126246
v 0.113332 0.003405 0.139690
v 0.118053 0.003405 0.136536
v 0.121208 0.003405 0.131815
v 0.107764 0.000000 -0.140798
v 0.122316 0.000000 -0.126246
v 0.113332 0.000000 -0.139690
v 0.118053 0.000000 -0.136536
v 0.121208 0.000000 -0.131815
v 0.122316 0.003405 -0.126246
v 0.107764 0.003405 -0.140798
v 0.121208 0.003405 -0.131815
v 0.118053 0.003405 -0.136536
v 0.113332 0.003405 -0.139690
vt 0.937500 0.937500
vt 0.937500 0.937500
vt 0.937500 0.937500
vt 0.937500 0.937500
vt 0.937500 0.937500
vt 0.937500 0.937500
vt 0.937500 0.937500
vt 0.937500 0.937500
vt 0.937500 0.937500
vt 0.937500 0.937500
vt 0.937500 0.937500
vt 0.937500 0.937500
vt 0.937500 0.937500
vt 0.937500 0.937500
vt 0.937500 0.937500
vt 0.937500 0.937500
vt 0.937500 0.937500
vt 0.937500 0.937500
vt 0.937500 0.937500
vt 0.937500 0.937500
vt 0.937500 0.937500
vt 0.937500 0.937500
vt 0.937500 0.937500
vt 0.937500 0.937500
vt 0.937500 0.937500
vt 0.937500 0.937500
vt 0.937500 0.937500
vt 0.937500 0.937500
vt 0.937500 0.937500
vt 0.937500 0.937500
vt 0.937500 0.937500
vt 0.937500 0.937500
vt 0.937500 0.937500
vt 0.937500 0.937500
vt 0.937500 0.937500
vt 0.937500 0.937500
vt 0.937500 0.937500
vt 0.937500 0.937500
vt 0.937500 0.937500
vt 0.937500 0.937500
vn 0.0980 0.0000 0.9952
vn -0.0980 0.0000 0.9952
vn 0.9952 0.0000 -0.0980
vn 0.9952 0.0000 0.0980
vn 0.0000 1.0000 -0.0000
vn -0.9952 0.0000 0.0980
vn -0.9952 0.0000 -0.0980
vn -0.0980 0.0000 -0.9952
vn 0.0980 0.0000 -0.9952
vn -0.3827 0.0000 0.9239
vn -0.7071 0.0000 0.7071
vn -0.9239 0.0000 0.3827
vn -0.3827 0.0000 -0.9239
vn -0.7071 0.0000 -0.7071
vn -0.9239 0.0000 -0.3827
vn 0.9239 0.0000 -0.3827
vn 0.7071 0.0000 -0.7071
vn 0.3827 0.0000 -0.9239
vn 0.3827 0.0000 0.9239
vn 0.7071 0.0000 0.7071
vn 0.9239 0.0000 0.3827
vn 0.0000 -1.0000 0.0000
usemtl Dark
s 1
f 22/1/1 26/2/1 7/3/2 1/4/2
f 32/5/3 36/6/3 27/7/4 21/8/4
f 36/6/5 38/9/5 39/10/5 40/11/5 37/12/5 16/13/5 18/14/5 19/15/5 20/16/5 17/17/5 6/18/5 8/19/5 9/20/5 10/21/5 7/3/5 26/2/5 28/22/5 29/23/5 30/24/5 27/7/5
f 2/25/6 6/18/6 17/17/7 11/26/7
f 12/27/8 16/13/8 37/12/9 31/28/9
f 1/4/2 7/3/2 10/21/10 3/29/10
f 3/29/10 10/21/10 9/20/11 4/30/11
f 4/30/11 9/20/11 8/19/12 5/31/12
f 5/31/12 8/19/12 6/18/6 2/25/6
f 16/13/8 12/27/8 15/32/13 18/14/13
f 18/14/13 15/32/13 14/33/14 19/15/14
f 19/15/14 14/33/14 13/34/15 20/16/15
f 20/16/15 13/34/15 11/26/7 17/17/7
f 36/6/3 32/5/3 35/35/16 38/9/16
f 38/9/16 35/35/16 34/36/17 39/10/17
f 39/10/17 34/36/17 33/37/18 40/11/18
f 40/11/18 33/37/18 31/28/9 37/12/9
f 26/2/1 22/1/1 25/38/19 28/22/19
f 28/22/19 25/38/19 24/39/20 29/23/20
f 29/23/20 24/39/20 23/40/21 30/24/21
f 30/24/21 23/40/21 21/8/4 27/7/4
f 11/26/22 13/34/22 14/33/22 15/32/22 12/27/22 31/28/22 33/37/22 34/36/22 35/35/22 32/5/22 21/8/22 23/40/22 24/39/22 25/38/22 22/1/22 1/4/22 3/29/22 4/30/22 5/31/22 2/25/22
