# Blender v2.92.0 OBJ File: 'LowPoly Server Room.blend'
# www.blender.org
mtllib pencil.mtl
o pencil
v -0.000001 0.014581 0.067556
v 0.007665 0.009011 0.067556
v 0.004737 0.000000 0.067556
v -0.004738 0.000000 0.067556
v -0.007666 0.009011 0.067556
v -0.000001 0.006521 0.095581
v -0.000001 0.009547 -0.079124
v 0.002877 0.007456 -0.079124
v 0.001778 0.004073 -0.079124
v -0.001779 0.004073 -0.079124
v -0.002878 0.007456 -0.079124
v -0.000001 0.014581 -0.079124
v 0.007665 0.009011 -0.079124
v 0.004737 0.000000 -0.079124
v -0.004738 0.000000 -0.079124
v -0.007666 0.009011 -0.079124
v -0.002000 0.007170 0.088279
v 0.001248 0.004803 0.088279
v -0.001239 0.004816 0.088279
v 0.002024 0.007178 0.088279
v -0.000001 0.008562 0.088279
vt 0.937500 0.187500
vt 0.937500 0.187500
vt 0.937500 0.187500
vt 0.937500 0.187500
vt 0.937500 0.187500
vt 0.937500 0.187500
vt 0.937500 0.187500
vt 0.937500 0.187500
vt 0.937500 0.187500
vt 0.937500 0.187500
vt 0.937500 0.937500
vt 0.937500 0.937500
vt 0.937500 0.937500
vt 0.937500 0.937500
vt 0.937500 0.937500
vt 0.937500 0.937500
vt 0.937500 0.937500
vt 0.937500 0.937500
vt 0.937500 0.937500
vt 0.937500 0.937500
vt 0.937500 0.937500
vt 0.687500 0.437500
vt 0.687500 0.437500
vt 0.687500 0.437500
vt 0.687500 0.437500
vt 0.687500 0.437500
vt 0.687500 0.437500
vt 0.687500 0.437500
vt 0.687500 0.437500
vt 0.687500 0.437500
vt 0.687500 0.437500
vt 0.687500 0.437500
vt 0.687500 0.437500
vt 0.687500 0.437500
vt 0.687500 0.437500
vt 0.687500 0.437500
vt 0.687500 0.437500
vt 0.687500 0.437500
vt 0.687500 0.437500
vt 0.687500 0.437500
vt 0.687500 0.437500
vn 0.5878 0.8090 0.0000
vn -0.5878 0.8090 0.0000
vn -0.9511 -0.3090 -0.0000
vn -0.0000 -1.0000 -0.0000
vn 0.9511 -0.3090 0.0000
vn 0.0000 0.0000 -1.0000
vn -0.9267 -0.2994 0.2271
vn 0.9252 -0.3023 0.2292
vn -0.0052 -0.9736 0.2281
vn -0.5568 0.8000 0.2236
vn 0.5497 0.8045 0.2248
vn 0.5677 0.7912 0.2272
vn 0.9264 -0.3014 0.2257
vn -0.0011 -0.9741 0.2261
vn -0.9264 -0.3007 0.2265
vn -0.5691 0.7901 0.2277
usemtl Material.008
s off
f 1/1/1 2/2/1 13/3/1 12/4/1
f 5/5/2 1/1/2 12/4/2 16/6/2
f 4/7/3 5/5/3 16/6/3 15/8/3
f 3/9/4 4/7/4 15/8/4 14/10/4
f 2/2/5 3/9/5 14/10/5 13/3/5
usemtl Dark
f 7/11/6 8/12/6 9/13/6 10/14/6 11/15/6
f 17/16/7 19/17/7 6/18/7
f 18/19/8 20/20/8 6/18/8
f 19/17/9 18/19/9 6/18/9
f 21/21/10 17/16/10 6/18/10
f 20/20/11 21/21/11 6/18/11
usemtl Material.004
f 1/22/12 21/23/12 20/24/12 2/25/12
f 2/25/13 20/24/13 18/26/13 3/27/13
f 3/27/14 18/26/14 19/28/14 4/29/14
f 4/29/15 19/28/15 17/30/15 5/31/15
f 5/31/16 17/30/16 21/23/16 1/22/16
f 8/32/6 7/33/6 12/34/6 13/35/6
f 9/36/6 8/32/6 13/35/6 14/37/6
f 10/38/6 9/36/6 14/37/6 15/39/6
f 11/40/6 10/38/6 15/39/6 16/41/6
f 7/33/6 11/40/6 16/41/6 12/34/6
