# Blender v2.92.0 OBJ File: 'LowPoly Server Room.blend'
# www.blender.org
mtllib server_2.mtl
o server_2
v -0.785812 0.056193 -0.410843
v -0.785812 2.166867 -0.410843
v 0.785812 0.056193 -0.410843
v 0.785812 2.166867 -0.410843
v -0.619009 0.000000 0.576719
v -0.100002 0.000000 0.576719
v 0.100002 0.000000 0.576719
v 0.619009 0.000000 0.576719
v 0.619009 2.223060 0.576719
v 0.100002 2.223060 0.576719
v -0.100002 2.223060 0.576719
v -0.619009 2.223060 0.576719
v -0.619009 0.000000 -0.623126
v -0.067260 0.080241 -0.606580
v 0.067260 0.080241 -0.606580
v 0.619009 0.000000 -0.623126
v 0.619009 2.223060 -0.623126
v 0.067260 2.142819 -0.606580
v -0.067260 2.142819 -0.606580
v -0.619009 2.223060 -0.623126
v 0.619009 0.000000 0.461397
v -0.619009 0.000000 0.461397
v -0.619009 2.223060 0.461397
v 0.619009 2.223060 0.461397
v 0.392658 0.251596 0.660528
v 0.326353 0.251596 0.660528
v 0.326353 1.971464 0.660528
v -0.392658 1.971464 0.660528
v -0.392658 0.251596 0.660528
v 0.392658 1.971464 0.660528
v -0.326353 0.251596 0.660528
v -0.326353 1.971464 0.660528
v -0.798203 2.223060 0.576719
v -0.798203 0.000000 0.576719
v 0.798203 0.000000 0.576719
v 0.798203 2.223060 0.576719
v 0.053294 2.223060 0.576719
v 0.053294 0.000000 0.576719
v -0.053294 0.000000 0.576719
v -0.053294 2.223060 0.576719
v 0.619009 0.000000 0.660528
v 0.619009 2.223060 0.660528
v -0.619009 2.223060 0.660528
v -0.619009 0.000000 0.660528
v 0.100002 2.223060 0.660528
v 0.100002 0.000000 0.660528
v -0.100002 0.000000 0.660528
v -0.100002 2.223060 0.660528
v 0.392658 0.251596 0.621918
v 0.392658 1.971464 0.621918
v -0.392658 1.971464 0.621918
v -0.392658 0.251596 0.621918
v 0.326353 1.971464 0.621918
v 0.326353 0.251596 0.621918
v -0.326353 0.251596 0.621918
v -0.326353 1.971464 0.621918
v -0.701597 0.000000 0.461397
v -0.785812 0.056193 0.326627
v -0.785812 2.166867 0.326627
v -0.701597 2.223060 0.461397
v 0.785812 0.056193 0.326627
v 0.701596 0.000000 0.461397
v 0.701596 2.223060 0.461397
v 0.785812 2.166867 0.326627
v 0.053294 2.223060 0.633978
v 0.079844 2.223060 0.660528
v 0.079844 0.000000 0.660528
v 0.053294 0.000000 0.633978
v -0.053294 0.000000 0.633978
v -0.079845 0.000000 0.660528
v -0.079845 2.223060 0.660528
v -0.053294 2.223060 0.633978
v 0.798203 0.000000 0.617977
v 0.755651 0.000000 0.660528
v 0.755651 2.223060 0.660528
v 0.798203 2.223060 0.617977
v -0.798203 2.223060 0.617977
v -0.755652 2.223060 0.660528
v -0.755652 0.000000 0.660528
v -0.798203 0.000000 0.617977
v 0.100002 0.000000 0.521014
v 0.040385 0.000000 0.461397
v 0.100002 0.000000 0.401781
v 0.159618 0.000000 0.461397
v -0.040386 0.000000 0.461397
v -0.100002 0.000000 0.521014
v -0.159618 0.000000 0.461397
v -0.100002 0.000000 0.401781
v -0.100002 2.223060 0.521014
v -0.040386 2.223060 0.461397
v -0.100002 2.223060 0.401781
v -0.159618 2.223060 0.461397
v 0.040385 2.223060 0.461397
v 0.100002 2.223060 0.521014
v 0.159618 2.223060 0.461397
v 0.100002 2.223060 0.401781
v -0.785812 2.223060 -0.461397
v -0.785812 0.000000 -0.461397
v 0.785812 2.223060 -0.461397
v 0.785812 0.000000 -0.461397
v -0.785812 2.223060 0.377182
v -0.785812 0.000000 0.377182
v 0.785812 0.000000 0.377182
v 0.785812 2.223060 0.377182
v 0.100002 0.000000 -0.623126
v 0.100002 2.223060 -0.623126
v -0.100002 2.223060 -0.623126
v -0.100002 0.000000 -0.623126
v -0.313386 1.909674 0.393403
v -0.218356 2.403145 0.298373
v -0.313386 1.909674 -0.535292
v -0.218356 2.403145 -0.440262
v 0.313385 1.909674 0.393403
v 0.218356 2.403145 0.298373
v 0.313385 1.909674 -0.535292
v 0.218356 2.403145 -0.440262
v -0.313386 2.304971 0.393403
v -0.313386 2.304971 -0.535292
v 0.313385 2.304971 -0.535292
v 0.313385 2.304971 0.393403
v -0.313386 1.909674 -0.070945
v -0.313386 2.304971 -0.070945
v 0.313385 1.909674 -0.070945
v 0.313385 2.304971 -0.070945
v -0.218356 2.403145 -0.070945
v 0.218356 2.403145 -0.070945
v 0.133845 2.403145 0.013566
v -0.133846 2.403145 0.013566
v -0.133846 2.403145 0.213862
v 0.133845 2.403145 0.213862
v 0.133845 2.403145 -0.355751
v -0.133846 2.403145 -0.355751
v -0.133846 2.403145 -0.155456
v 0.133845 2.403145 -0.155456
v -0.133846 2.445435 0.013566
v 0.133845 2.445435 0.013566
v 0.133845 2.445435 0.213862
v -0.133846 2.445435 0.213862
v -0.133846 2.445435 -0.355751
v 0.133845 2.445435 -0.355751
v 0.133845 2.445435 -0.155456
v -0.133846 2.445435 -0.155456
v 0.290071 2.270000 -0.511977
v 0.290071 2.251298 -0.511977
v -0.280414 2.251298 -0.070945
v -0.280414 2.270000 -0.070945
v -0.290071 2.270000 0.370088
v -0.290071 2.251298 0.370088
v -0.313386 2.251298 0.393403
v -0.313386 2.270000 0.393403
v -0.313386 2.251298 -0.535292
v -0.313386 2.270000 -0.535292
v 0.313385 2.251298 -0.535292
v 0.313385 2.270000 -0.535292
v 0.313385 2.251298 0.393403
v 0.313385 2.270000 0.393403
v 0.313385 2.270000 -0.070945
v 0.313385 2.251298 -0.070945
v -0.313386 2.270000 -0.070945
v -0.313386 2.251298 -0.070945
v 0.280413 2.270000 -0.070945
v 0.280413 2.251298 -0.070945
v 0.290071 2.251298 0.370088
v 0.290071 2.270000 0.370088
v -0.290071 2.251298 -0.511977
v -0.290071 2.270000 -0.511977
vt 0.937500 0.937500
vt 0.937500 0.937500
vt 0.937500 0.937500
vt 0.937500 0.937500
vt 0.937500 0.937500
vt 0.937500 0.937500
vt 0.937500 0.937500
vt 0.937500 0.937500
vt 0.937500 0.937500
vt 0.937500 0.937500
vt 0.937500 0.937500
vt 0.937500 0.937500
vt 0.937500 0.937500
vt 0.937500 0.937500
vt 0.937500 0.937500
vt 0.937500 0.937500
vt 0.937500 0.937500
vt 0.937500 0.937500
vt 0.937500 0.937500
vt 0.937500 0.937500
vt 0.937500 0.937500
vt 0.937500 0.937500
vt 0.937500 0.937500
vt 0.937500 0.937500
vt 0.937500 0.937500
vt 0.937500 0.937500
vt 0.937500 0.937500
vt 0.937500 0.937500
vt 0.937500 0.937500
vt 0.937500 0.937500
vt 0.937500 0.937500
vt 0.937500 0.937500
vt 0.937500 0.937500
vt 0.937500 0.937500
vt 0.937500 0.937500
vt 0.937500 0.937500
vt 0.937500 0.937500
vt 0.937500 0.937500
vt 0.937500 0.937500
vt 0.937500 0.937500
vt 0.937500 0.937500
vt 0.937500 0.937500
vt 0.937500 0.937500
vt 0.937500 0.937500
vt 0.937500 0.937500
vt 0.937500 0.937500
vt 0.937500 0.937500
vt 0.937500 0.937500
vt 0.937500 0.937500
vt 0.937500 0.937500
vt 0.937500 0.937500
vt 0.937500 0.937500
vt 0.937500 0.937500
vt 0.937500 0.937500
vt 0.937500 0.937500
vt 0.937500 0.937500
vt 0.937500 0.937500
vt 0.937500 0.937500
vt 0.937500 0.937500
vt 0.937500 0.937500
vt 0.937500 0.937500
vt 0.937500 0.937500
vt 0.937500 0.937500
vt 0.937500 0.937500
vt 0.937500 0.937500
vt 0.937500 0.937500
vt 0.937500 0.937500
vt 0.937500 0.937500
vt 0.937500 0.937500
vt 0.937500 0.937500
vt 0.937500 0.937500
vt 0.937500 0.937500
vt 0.937500 0.937500
vt 0.937500 0.937500
vt 0.937500 0.937500
vt 0.937500 0.937500
vt 0.937500 0.937500
vt 0.937500 0.937500
vt 0.937500 0.937500
vt 0.937500 0.937500
vt 0.937500 0.937500
vt 0.937500 0.937500
vt 0.937500 0.937500
vt 0.937500 0.937500
vt 0.937500 0.937500
vt 0.937500 0.937500
vt 0.937500 0.937500
vt 0.937500 0.937500
vt 0.937500 0.937500
vt 0.937500 0.937500
vt 0.937500 0.937500
vt 0.937500 0.937500
vt 0.937500 0.937500
vt 0.937500 0.937500
vt 0.937500 0.937500
vt 0.937500 0.937500
vt 0.937500 0.937500
vt 0.937500 0.937500
vt 0.937500 0.937500
vt 0.937500 0.937500
vt 0.937500 0.937500
vt 0.937500 0.937500
vt 0.937500 0.937500
vt 0.937500 0.937500
vt 0.937500 0.937500
vt 0.937500 0.937500
vt 0.937500 0.937500
vt 0.937500 0.937500
vt 0.937500 0.937500
vt 0.937500 0.937500
vt 0.937500 0.937500
vt 0.937500 0.937500
vt 0.937500 0.937500
vt 0.937500 0.937500
vt 0.937500 0.937500
vt 0.937500 0.937500
vt 0.937500 0.937500
vt 0.937500 0.937500
vt 0.937500 0.937500
vt 0.937500 0.937500
vt 0.937500 0.937500
vt 0.937500 0.937500
vt 0.937500 0.937500
vt 0.937500 0.937500
vt 0.937500 0.937500
vt 0.937500 0.937500
vt 0.937500 0.937500
vt 0.937500 0.937500
vt 0.937500 0.937500
vt 0.937500 0.937500
vt 0.937500 0.937500
vt 0.937500 0.937500
vt 0.937500 0.937500
vt 0.937500 0.937500
vt 0.937500 0.937500
vt 0.937500 0.937500
vt 0.937500 0.937500
vt 0.937500 0.937500
vt 0.937500 0.937500
vt 0.937500 0.937500
vt 0.937500 0.937500
vt 0.937500 0.937500
vt 0.937500 0.937500
vt 0.937500 0.937500
vt 0.937500 0.937500
vt 0.937500 0.937500
vt 0.937500 0.937500
vt 0.937500 0.937500
vt 0.937500 0.937500
vt 0.937500 0.937500
vt 0.937500 0.937500
vt 0.937500 0.937500
vt 0.937500 0.937500
vt 0.937500 0.937500
vt 0.937500 0.937500
vt 0.937500 0.937500
vt 0.937500 0.937500
vt 0.937500 0.937500
vt 0.437500 0.437500
vt 0.437500 0.437500
vt 0.437500 0.437500
vt 0.437500 0.437500
vt 0.437500 0.437500
vt 0.437500 0.437500
vt 0.437500 0.437500
vt 0.437500 0.437500
vt 0.437500 0.437500
vt 0.437500 0.437500
vt 0.437500 0.437500
vt 0.437500 0.437500
vt 0.437500 0.437500
vt 0.437500 0.437500
vt 0.437500 0.437500
vt 0.437500 0.437500
vt 0.437500 0.437500
vt 0.437500 0.437500
vt 0.437500 0.437500
vt 0.437500 0.437500
vt 0.437500 0.687500
vt 0.437500 0.687500
vt 0.437500 0.687500
vt 0.437500 0.687500
vt 0.437500 0.687500
vt 0.437500 0.687500
vt 0.437500 0.687500
vt 0.437500 0.687500
vt 0.437500 0.687500
vt 0.437500 0.687500
vt 0.437500 0.687500
vt 0.437500 0.687500
vt 0.437500 0.687500
vt 0.437500 0.687500
vt 0.437500 0.687500
vt 0.437500 0.687500
vt 0.437500 0.687500
vt 0.437500 0.687500
vt 0.437500 0.687500
vt 0.437500 0.687500
vn 0.0000 0.0000 1.0000
vn 0.0000 -1.0000 0.0000
vn 1.0000 0.0000 0.0000
vn 0.0000 1.0000 0.0000
vn 0.6961 0.0000 -0.7179
vn -1.0000 0.0000 0.0000
vn -0.6961 0.0000 -0.7179
vn 0.0000 0.0000 -1.0000
vn -0.7071 0.0000 0.7071
vn 0.7071 0.0000 0.7071
vn -0.4510 0.0000 -0.8925
vn 0.4510 0.0000 -0.8925
vn 0.0000 -0.2020 -0.9794
vn 0.0000 0.2020 -0.9794
vn -0.7185 0.6955 0.0000
vn 0.0000 0.6955 -0.7185
vn 0.7185 0.6955 0.0000
vn 0.0000 0.6955 0.7185
vn -0.9998 0.0000 -0.0219
vn 0.9998 0.0000 0.0219
vn 0.9998 0.0000 -0.0219
vn -0.9998 0.0000 0.0219
usemtl Dark
s off
f 22/1/1 23/2/1 60/3/1 57/4/1
f 16/5/2 100/6/2 103/7/2 62/8/2 21/9/2
f 62/8/1 63/10/1 24/11/1 21/9/1
f 3/12/3 4/13/3 64/14/3 61/15/3
f 20/16/4 97/17/4 101/18/4 60/3/4 23/2/4
f 105/19/2 83/20/2 82/21/2 85/22/2 88/23/2 108/24/2
f 24/11/4 95/25/4 94/26/4 10/27/4 9/28/4
f 5/29/2 44/30/2 79/31/2 80/32/2 34/33/2
f 16/5/5 17/34/5 99/35/5 100/6/5
f 58/36/6 59/37/6 2/38/6 1/39/6
f 99/35/4 17/34/4 24/11/4 63/10/4 104/40/4
f 98/41/7 97/17/7 20/16/7 13/42/7
f 86/43/3 89/44/3 11/45/3 6/46/3
f 107/47/4 91/48/4 90/49/4 93/50/4 96/51/4 106/52/4
f 90/49/1 85/22/1 82/21/1 93/50/1
f 89/44/4 92/53/4 23/2/4 12/54/4 11/45/4
f 22/1/2 13/42/2 108/24/2 88/23/2 87/55/2
f 23/2/6 22/1/6 5/29/6 12/54/6
f 17/34/8 16/5/8 105/19/8 106/52/8
f 13/42/8 20/16/8 107/47/8 108/24/8
f 9/28/4 10/27/4 45/56/4 42/57/4
f 16/5/2 21/9/2 84/58/2 83/20/2 105/19/2
f 81/59/2 84/58/2 21/9/2 8/60/2 7/61/2
f 22/1/2 87/55/2 86/43/2 6/46/2 5/29/2
f 24/11/4 17/34/4 106/52/4 96/51/4 95/25/4
f 20/16/4 23/2/4 92/53/4 91/48/4 107/47/4
f 21/9/3 24/11/3 9/28/3 8/60/3
f 32/62/2 28/63/2 51/64/2 56/65/2
f 28/63/3 29/66/3 52/67/3 51/64/3
f 11/45/4 48/68/4 71/69/4 72/70/4 40/71/4
f 7/61/2 8/60/2 41/72/2 46/73/2
f 9/28/4 42/57/4 75/74/4 76/75/4 36/76/4
f 11/45/4 12/54/4 43/77/4 48/68/4
f 5/29/2 6/46/2 47/78/2 44/30/2
f 43/77/4 12/54/4 33/79/4 77/80/4 78/81/4
f 41/72/2 8/60/2 35/82/2 73/83/2 74/84/2
f 12/54/8 5/29/8 34/33/8 33/79/8
f 44/30/1 43/77/1 78/81/1 79/31/1
f 35/82/3 36/76/3 76/75/3 73/83/3
f 8/60/8 9/28/8 36/76/8 35/82/8
f 33/79/6 34/33/6 80/32/6 77/80/6
f 45/56/4 10/27/4 37/85/4 65/86/4 66/87/4
f 47/78/2 6/46/2 39/88/2 69/89/2 70/90/2
f 10/27/8 7/61/8 38/91/8 37/85/8
f 6/46/8 11/45/8 40/71/8 39/88/8
f 48/68/1 47/78/1 70/90/1 71/69/1
f 37/85/6 38/91/6 68/92/6 65/86/6
f 39/88/3 40/71/3 72/70/3 69/89/3
f 7/61/2 46/73/2 67/93/2 68/92/2 38/91/2
f 30/94/1 25/95/1 41/72/1 42/57/1
f 29/66/1 28/63/1 43/77/1 44/30/1
f 26/96/1 27/97/1 45/56/1 46/73/1
f 25/95/1 26/96/1 46/73/1 41/72/1
f 32/62/1 31/98/1 47/78/1 48/68/1
f 31/98/1 29/66/1 44/30/1 47/78/1
f 28/63/1 32/62/1 48/68/1 43/77/1
f 27/97/1 30/94/1 42/57/1 45/56/1
f 31/98/6 32/62/6 56/65/6 55/99/6
f 27/97/3 26/96/3 54/100/3 53/101/3
f 25/95/6 30/94/6 50/102/6 49/103/6
f 30/94/2 27/97/2 53/101/2 50/102/2
f 29/66/4 31/98/4 55/99/4 52/67/4
f 26/96/4 25/95/4 49/103/4 54/100/4
f 57/4/9 60/3/9 101/18/9 102/104/9
f 63/10/10 62/8/10 103/7/10 104/40/10
f 98/41/2 13/42/2 22/1/2 57/4/2 102/104/2
f 65/86/9 68/92/9 67/93/9 66/87/9
f 69/89/10 72/70/10 71/69/10 70/90/10
f 46/73/1 45/56/1 66/87/1 67/93/1
f 73/83/10 76/75/10 75/74/10 74/84/10
f 77/80/9 80/32/9 79/31/9 78/81/9
f 42/57/1 41/72/1 74/84/1 75/74/1
f 81/59/2 82/21/2 83/20/2 84/58/2
f 85/22/2 86/43/2 87/55/2 88/23/2
f 89/44/4 90/49/4 91/48/4 92/53/4
f 93/50/4 94/26/4 95/25/4 96/51/4
f 85/22/10 90/49/10 89/44/10 86/43/10
f 93/50/9 82/21/9 81/59/9 94/26/9
f 94/26/6 81/59/6 7/61/6 10/27/6
f 1/39/6 2/38/6 97/17/6 98/41/6
f 4/13/3 3/12/3 100/6/3 99/35/3
f 59/37/6 58/36/6 102/104/6 101/18/6
f 61/15/3 64/14/3 104/40/3 103/7/3
f 58/36/6 1/39/6 98/41/6 102/104/6
f 2/38/6 59/37/6 101/18/6 97/17/6
f 3/12/3 61/15/3 103/7/3 100/6/3
f 64/14/3 4/13/3 99/35/3 104/40/3
f 15/105/11 18/106/11 106/52/11 105/19/11
f 19/107/12 14/108/12 108/24/12 107/47/12
f 18/106/13 19/107/13 107/47/13 106/52/13
f 14/108/14 15/105/14 105/19/14 108/24/14
f 115/109/3 153/110/3 158/111/3 123/112/3
f 111/113/8 151/114/8 153/110/8 115/109/8
f 121/115/6 160/116/6 151/114/6 111/113/6
f 125/117/15 112/118/15 118/119/15 122/120/15
f 112/118/16 116/121/16 119/122/16 118/119/16
f 126/123/17 114/124/17 120/125/17 124/126/17
f 114/124/18 110/127/18 117/128/18 120/125/18
f 116/121/17 126/123/17 124/126/17 119/122/17
f 110/127/15 125/117/15 122/120/15 117/128/15
f 123/112/3 158/111/3 155/129/3 113/130/3
f 113/130/1 155/129/1 149/131/1 109/132/1
f 126/123/4 125/117/4 128/133/4 127/134/4
f 125/117/4 110/127/4 129/135/4 128/133/4
f 110/127/4 114/124/4 130/136/4 129/135/4
f 114/124/4 126/123/4 127/134/4 130/136/4
f 116/121/4 112/118/4 132/137/4 131/138/4
f 112/118/4 125/117/4 133/139/4 132/137/4
f 125/117/4 126/123/4 134/140/4 133/139/4
f 126/123/4 116/121/4 131/138/4 134/140/4
f 156/141/1 120/125/1 117/128/1 150/142/1
f 154/143/3 119/122/3 124/126/3 157/144/3
f 109/132/6 149/131/6 160/116/6 121/115/6
f 157/144/3 124/126/3 120/125/3 156/141/3
f 159/145/6 122/120/6 118/119/6 152/146/6
f 152/146/8 118/119/8 119/122/8 154/143/8
f 151/114/4 160/116/4 145/147/4 165/148/4
f 149/131/4 155/129/4 163/149/4 148/150/4
f 160/116/4 149/131/4 148/150/4 145/147/4
f 159/145/2 152/146/2 166/151/2 146/152/2
f 156/141/2 150/142/2 147/153/2 164/154/2
f 155/129/4 158/111/4 162/155/4 163/149/4
f 150/142/6 117/128/6 122/120/6 159/145/6
f 158/111/4 153/110/4 144/156/4 162/155/4
f 152/146/2 154/143/2 143/157/2 166/151/2
f 157/144/2 156/141/2 164/154/2 161/158/2
f 150/142/2 159/145/2 146/152/2 147/153/2
f 153/110/4 151/114/4 165/148/4 144/156/4
f 154/143/2 157/144/2 161/158/2 143/157/2
usemtl glow
f 51/159/1 52/160/1 55/161/1 56/162/1
f 49/163/1 50/164/1 53/165/1 54/166/1
f 147/167/19 146/168/19 145/169/19 148/170/19
f 143/171/20 161/172/20 162/173/20 144/174/20
f 164/175/1 147/167/1 148/170/1 163/176/1
f 161/172/21 164/175/21 163/176/21 162/173/21
f 166/177/8 143/171/8 144/174/8 165/178/8
f 146/168/22 166/177/22 165/178/22 145/169/22
usemtl dark_light
f 18/179/8 15/180/8 14/181/8 19/182/8
f 131/183/8 132/184/8 139/185/8 140/186/8
f 132/184/6 133/187/6 142/188/6 139/185/6
f 136/189/4 135/190/4 138/191/4 137/192/4
f 140/186/4 139/185/4 142/188/4 141/193/4
f 128/194/6 129/195/6 138/191/6 135/190/6
f 133/187/1 134/196/1 141/193/1 142/188/1
f 127/197/8 128/194/8 135/190/8 136/189/8
f 134/196/3 131/183/3 140/186/3 141/193/3
f 129/195/1 130/198/1 137/192/1 138/191/1
f 130/198/3 127/197/3 136/189/3 137/192/3
