{
    "accessors": [
        {
            "bufferView": 0,
            "componentType": 5126,
            "count": 48078,
            "max": [
                0.5790711641311646,
                0.7026668190956116,
                0.7829530835151672
            ],
            "min": [
                -0.6251870393753052,
                -0.7628347873687744,
                -0.79765784740448
            ],
            "type": "VEC3"
        },
        {
            "bufferView": 1,
            "componentType": 5126,
            "count": 48078,
            "type": "VEC3"
        },
        {
            "bufferView": 2,
            "componentType": 5126,
            "count": 48078,
            "type": "VEC2"
        },
        {
            "bufferView": 3,
            "componentType": 5125,
            "count": 48078,
            "type": "SCALAR"
        }
    ],
    "asset": {
        "generator": "Arcsoftgltf v1.0",
        "version": "2.0"
    },
    "bufferViews": [
        {
            "buffer": 0,
            "byteLength": 576936,
            "byteOffset": 0
        },
        {
            "buffer": 0,
            "byteLength": 576936,
            "byteOffset": 576936
        },
        {
            "buffer": 0,
            "byteLength": 384624,
            "byteOffset": 1153872
        },
        {
            "buffer": 0,
            "byteLength": 192312,
            "byteOffset": 1538496
        }
    ],
    "buffers": [
        {
            "byteLength": 1730808,
            "name": "ArcsoftBuffer",
            "uri": "1688287533029.bin"
        }
    ],
    "extensionsUsed": [
        "MTL",
        "avatar_shape_names",
        "avatar_arcdata",
        "avatar_glass_keypoints",
        "Arc3DTech"
    ],
    "images": [
        {
            "name": "",
            "uri": "1688287533029.png"
        }
    ],
    "materials": [
        {
            "alphaMode": "OPAQUE",
            "doubleSided": true,
            "extensions": {
                "MTL": {
                    "Ka": [
                        0.429,
                        0.535,
                        0.382
                    ],
                    "Kd": [
                        0.429,
                        0.535,
                        0.382
                    ],
                    "Ks": [
                        0.0,
                        0.0,
                        0.0
                    ],
                    "Ns": 5.0,
                    "d": 1.0,
                    "illum": 2.0,
                    "map_Kd": "1688287533029.png"
                }
            },
            "name": "",
            "pbrMetallicRoughness": {
                "baseColorTexture": {
                    "index": 0,
                    "texCoord": 0
                },
                "metallicFactor": 1.0,
                "roughnessFactor": 1.0
            }
        }
    ],
    "meshes": [
        {
            "extensions": {
                "Arc3DTech": {
                    "Date": "7 2,2023 10:45:33",
                    "Model": "Object",
                    "ScanAngle": "-180.0;0.0;0.0;180.0"
                }
            },
            "name": "ArcsoftMeshes0",
            "primitives": [
                {
                    "attributes": {
                        "NORMAL": 1,
                        "POSITION": 0,
                        "TEXCOORD_0": 2
                    },
                    "indices": 3,
                    "material": 0
                }
            ]
        }
    ],
    "nodes": [
        {
            "mesh": 0,
            "name": "",
            "rotation": [
                0.0,
                0.0,
                0.0,
                1.0
            ],
            "scale": [
                1.0,
                1.0,
                1.0
            ],
            "translation": [
                0.0,
                0.0,
                0.0
            ]
        }
    ],
    "samplers": [
        {
            "magFilter": 9729,
            "minFilter": 9987,
            "name": "",
            "wrapS": 10497,
            "wrapT": 10497
        }
    ],
    "scene": 0,
    "scenes": [
        {
            "nodes": [
                0
            ]
        }
    ],
    "textures": [
        {
            "name": "",
            "sampler": 0,
            "source": 0
        }
    ]
}